<svg width="342" height="336" viewBox="0 0 342 336" fill="none" xmlns="http://www.w3.org/2000/svg">
<rect width="342" height="336" fill="#FFEECE"/>
<rect width="342" height="336" fill="white"/>
<path d="M56.8806 132.367C56.8806 112.045 73.3543 95.5715 93.6756 95.5715C113.997 95.5715 130.471 112.045 130.471 132.367V161.398C130.471 181.719 113.997 198.193 93.6756 198.193C73.3543 198.193 56.8806 181.719 56.8806 161.398V132.367Z" fill="#FE4401"/>
<path d="M19.9648 114.138C19.9648 103.884 28.2773 95.5715 38.5312 95.5715C48.7851 95.5715 57.0975 103.884 57.0975 114.138V201.906C57.0975 212.16 48.7851 220.472 38.5312 220.472C28.2773 220.472 19.9648 212.16 19.9648 201.906V114.138Z" fill="#FE4401"/>
<path d="M19.9648 169.668C19.9648 149.253 36.6829 132.704 57.0975 132.704C77.512 132.704 94.2301 149.253 94.2301 169.668V206.463C94.2301 226.878 77.512 243.427 57.0975 243.427C36.6829 243.427 19.9648 226.878 19.9648 206.463V169.668Z" fill="#FE4401"/>
<path d="M130.688 114.138C130.688 103.884 139 95.5715 149.254 95.5715C159.508 95.5715 167.82 103.884 167.82 114.138V201.906C167.82 212.16 159.508 220.472 149.254 220.472C139 220.472 130.688 212.16 130.688 201.906V114.138Z" fill="#FE4401"/>
<path d="M94.2301 169.499C94.2301 149.178 110.704 132.704 131.025 132.704C151.347 132.704 167.82 149.178 167.82 169.499V206.632C167.82 226.953 151.347 243.427 131.025 243.427C110.704 243.427 94.2301 226.953 94.2301 206.632V169.499Z" fill="#FE4401"/>
<path d="M174.568 149.414C174.568 128.999 191.286 112.45 211.701 112.45C232.116 112.45 248.834 128.999 248.834 149.414V206.463C248.834 226.878 232.116 243.427 211.701 243.427C191.286 243.427 174.568 226.878 174.568 206.463V149.414Z" fill="#FE4401"/>
<path d="M248.834 149.245C248.834 128.924 265.307 112.45 285.629 112.45C305.95 112.45 322.424 128.924 322.424 149.245V206.632C322.424 226.953 305.95 243.427 285.629 243.427C265.307 243.427 248.834 226.953 248.834 206.632V149.245Z" fill="#FE4401"/>
<path d="M174.568 150.258C174.568 120.055 199.052 95.5715 229.255 95.5715H267.738C297.94 95.5715 322.424 120.055 322.424 150.258C322.424 180.46 297.94 204.944 267.738 204.944H229.255C199.052 204.944 174.568 180.46 174.568 150.258Z" fill="#FE4401"/>
<rect x="35.4902" y="122.576" width="33.7569" height="51.9857" rx="16.8785" fill="white"/>
<rect x="69.248" y="122.576" width="33.7569" height="51.9857" rx="16.8785" fill="white"/>
<rect x="196.844" y="122.576" width="33.7569" height="51.9857" rx="16.8785" fill="white"/>
<rect x="230.602" y="122.576" width="33.7569" height="51.9857" rx="16.8785" fill="white"/>
<rect x="35.4902" y="138.099" width="18.9039" height="29.7061" rx="9.45194" fill="#4351EC"/>
<rect x="69.248" y="138.099" width="18.9039" height="29.7061" rx="9.45194" fill="#4351EC"/>
<rect x="207.65" y="130.003" width="18.9039" height="29.7061" rx="9.45194" fill="#4351EC"/>
<rect x="241.408" y="130.003" width="18.9039" height="29.7061" rx="9.45194" fill="#4351EC"/>
</svg>
