<svg width="172" height="172" viewBox="0 0 172 172" fill="none" xmlns="http://www.w3.org/2000/svg">
<path d="M47.9157 50.7951C47.9157 30.4737 64.3894 14 84.7108 14C105.032 14 121.506 30.4737 121.506 50.7951V79.826C121.506 100.147 105.032 116.621 84.7108 116.621C64.3894 116.621 47.9157 100.147 47.9157 79.826V50.7951Z" fill="#FE4401"/>
<path d="M11 32.5663C11 22.3124 19.3124 14 29.5663 14C39.8202 14 48.1326 22.3124 48.1326 32.5663V120.334C48.1326 130.588 39.8202 138.901 29.5663 138.901C19.3124 138.901 11 130.588 11 120.334V32.5663Z" fill="#FE4401"/>
<path d="M11 88.0965C11 67.6819 27.7181 51.1326 48.1326 51.1326C68.5472 51.1326 85.2653 67.6819 85.2653 88.0965V124.892C85.2653 145.306 68.5472 161.855 48.1326 161.855C27.7181 161.855 11 145.306 11 124.892V88.0965Z" fill="#FE4401"/>
<path d="M121.723 32.5663C121.723 22.3124 130.035 14 140.289 14C150.543 14 158.855 22.3124 158.855 32.5663V120.334C158.855 130.588 150.543 138.901 140.289 138.901C130.035 138.901 121.723 130.588 121.723 120.334V32.5663Z" fill="#FE4401"/>
<path d="M85.2653 87.9277C85.2653 67.6063 101.739 51.1326 122.06 51.1326C142.382 51.1326 158.855 67.6063 158.855 87.9277V125.06C158.855 145.382 142.382 161.855 122.06 161.855C101.739 161.855 85.2653 145.382 85.2653 125.06V87.9277Z" fill="#FE4401"/>
<rect x="26.5254" y="41.0044" width="33.7569" height="51.9857" rx="16.8785" fill="white"/>
<rect x="60.2832" y="41.0044" width="33.7569" height="51.9857" rx="16.8785" fill="white"/>
<rect x="26.5254" y="56.5273" width="18.9039" height="29.7061" rx="9.45194" fill="#4351EC"/>
<rect x="60.2832" y="56.5273" width="18.9039" height="29.7061" rx="9.45194" fill="#4351EC"/>
</svg>
